<svg width="80" height="84" viewBox="0 0 56 57" fill="none" xmlns="http://www.w3.org/2000/svg">
<rect x="4" y="4.5" width="48" height="48" rx="24" fill="#f5c2c2"/>
<rect x="4" y="4.5" width="48" height="48" rx="24" stroke="#f5d0d0" stroke-width="8"/>
<path d="M27.9998 24.5012V28.5012M27.9998 32.5012H28.0098M26.2898 19.3612L17.8198 33.5012C17.6451 33.8036 17.5527 34.1465 17.5518 34.4957C17.5508 34.8449 17.6413 35.1883 17.8142 35.4917C17.9871 35.7951 18.2365 36.0479 18.5375 36.225C18.8385 36.4021 19.1806 36.4973 19.5298 36.5012H36.4698C36.819 36.4973 37.1611 36.4021 37.4621 36.225C37.7631 36.0479 38.0124 35.7951 38.1854 35.4917C38.3583 35.1883 38.4488 34.8449 38.4478 34.4957C38.4468 34.1465 38.3544 33.8036 38.1798 33.5012L29.7098 19.3612C29.5315 19.0673 29.2805 18.8243 28.981 18.6557C28.6814 18.487 28.3435 18.3984 27.9998 18.3984C27.656 18.3984 27.3181 18.487 27.0186 18.6557C26.7191 18.8243 26.468 19.0673 26.2898 19.3612Z" stroke="#FF0000" stroke-width="2" stroke-linecap="round" stroke-linejoin="round"/>
</svg>
